<svg xmlns="http://www.w3.org/2000/svg" version="1.1" xmlns:xlink="http://www.w3.org/1999/xlink" xmlns:svgjs="http://svgjs.com/svgjs" width="1440" height="750" preserveAspectRatio="none" viewBox="0 0 1440 750"><g mask="url(&quot;#SvgjsMask1072&quot;)" fill="none"><rect width="1440" height="750" x="0" y="0" fill="rgba(228, 227, 217, 1)"></rect><path d="M982.52 753.59C1095.01 672.91 985.41 301.92 1226.88 256.71 1468.35 211.5 1587.25 101.14 1715.61 99.21" stroke="rgba(207, 205, 177, 1)" stroke-width="2"></path><path d="M408.45 793.47C579.76 790.27 699.97 581.81 1055.64 567.92 1411.31 554.03 1517.19 212.94 1702.83 200.42" stroke="rgba(207, 205, 177, 1)" stroke-width="2"></path><path d="M373.96 843.8C550.64 829.01 640.48 486.06 976.54 469.85 1312.59 453.64 1418.35 248.48 1579.11 244.85" stroke="rgba(207, 205, 177, 1)" stroke-width="2"></path><path d="M889.94 860.3C982.18 838.11 903.5 627.51 1156.39 590.06 1409.27 552.61 1528.37 239.8 1689.28 222.56" stroke="rgba(207, 205, 177, 1)" stroke-width="2"></path><path d="M622.66 861.06C731.1 815.96 632.21 523.09 896.98 479.67 1161.75 436.25 1288.72 182.42 1445.62 172.17" stroke="rgba(207, 205, 177, 1)" stroke-width="2"></path></g><defs><mask id="SvgjsMask1072"><rect width="1440" height="750" fill="#ffffff"></rect></mask></defs></svg>